<svg id="fba536d3-d76c-4a63-a077-5b92c6cc2827" data-name="Capa 1" xmlns="http://www.w3.org/2000/svg" viewBox="0 0 841.89 595.28"><rect x="658.13" y="236.32" width="6.5" height="252.44" style="fill:#776d6d"/><rect x="658.13" y="228.35" width="6.5" height="252.44" transform="translate(1015.95 -306.8) rotate(90)" style="fill:#776d6d"/><rect x="652.34" y="234.53" width="6.5" height="252.44" transform="translate(447.11 -357.91) rotate(45)" style="fill:#776d6d"/><rect x="654.88" y="228.35" width="6.5" height="252.44" transform="translate(1374.21 139.93) rotate(135)" style="fill:#776d6d"/><rect x="661.38" y="231.6" width="6.5" height="252.44" transform="translate(1237.35 -133.86) rotate(111.06)" style="fill:#776d6d"/><rect x="657.38" y="231.6" width="6.5" height="252.44" transform="translate(695.62 -392.68) rotate(64.23)" style="fill:#776d6d"/><rect x="654.88" y="232.81" width="6.5" height="252.44" transform="translate(172.94 -212.49) rotate(21.06)" style="fill:#776d6d"/><rect x="654.88" y="232.81" width="6.5" height="252.44" transform="translate(-86.21 269.59) rotate(-21.76)" style="fill:#776d6d"/><rect x="178.7" y="240.35" width="6.5" height="252.44" style="fill:#776d6d"/><rect x="178.7" y="232.38" width="6.5" height="252.44" transform="translate(540.54 176.66) rotate(90)" style="fill:#776d6d"/><rect x="172.91" y="238.56" width="6.5" height="252.44" transform="translate(309.53 -17.72) rotate(45)" style="fill:#776d6d"/><rect x="175.45" y="232.38" width="6.5" height="252.44" transform="translate(558.62 485.81) rotate(135)" style="fill:#776d6d"/><rect x="181.94" y="235.63" width="6.5" height="252.44" transform="translate(589.42 319.03) rotate(111.06)" style="fill:#776d6d"/><rect x="177.95" y="235.63" width="6.5" height="252.44" transform="translate(428.27 41.34) rotate(64.23)" style="fill:#776d6d"/><rect x="175.45" y="236.83" width="6.5" height="252.44" transform="translate(142.38 -39.96) rotate(21.06)" style="fill:#776d6d"/><rect x="175.45" y="236.83" width="6.5" height="252.44" transform="translate(-121.87 92.13) rotate(-21.76)" style="fill:#776d6d"/><path d="M146.86,351.11a38.42,38.42,0,0,0,21.42,46.66c19.94,8.63,38.59.58,51.79-22.36,7.63.65,7.25.66,7-7.49-.2-5.41.44-11.16,4.37-15.44a50,50,0,0,0,10.34-17.59c-.77-.53-1.56-1.05-2.37-1.54a32.91,32.91,0,0,1-5.72,10.85L215.15,336l.88-2.25a11.91,11.91,0,0,0-2,2.29c-6.82,11.59-7.13,26.9-12.34,38.95l.05-.11,7.53,2.58C205.8,388.93,188.17,396,174,391.47c-15.6-4.93-24.58-22.34-19.58-38,5.14-16.06,22.22-25.16,37.84-19.86-.2.5-.38,1-.57,1.51L193,335l-1.34.17-.75,2c4.81-4.27,10.5-10.61,10.3-16.65l-2.46,6.24C171.53,321.5,153.25,330.15,146.86,351.11Z" style="fill:#776d6d"/><path d="M789.27,294.63c-39.52-80.32-137.74-107.3-212.74-58.4-4.32,2.82-8.42,6-13.23,9.41-8.81-10.8-17.53-21.29-25.95-32-1.15-1.46-1.21-4.17-1-6.21a35.45,35.45,0,0,1,1.92-6.7l4.33,1.58c1-2.39,1.17-4.47,2.32-5.51,3.23-2.91,3.78-4.31.64-6.79-2.59-2-2.38-3.86-1.47-6.52,6.88-20.14,13.76-40.28,20.32-60.52.11-.35.24-.67.37-1a80.58,80.58,0,0,0-12.52-2.7c-6.35,18.39-12.59,36.81-19.07,55.15-1.22,3.45-3.47,6.53-5.17,9.81-.44.84-1,1.92-.84,2.71,1.4,5.8-2.53,10-3.74,15.25-1.36-.45-2.14-.69-2.91-1q-52-19-104-38-51.87-18.85-103.8-37.46c-2.75-1-5.29-2.18-4.93-5.39.44-4,.08-8.36,4-11.22a89.17,89.17,0,0,1-17-2.51c-.7,1.84-1.44,3.66-2.15,5.48-.22.57-1,1.46-1.3,1.39-5.07-1-5.16,3.18-6.44,6.08-.78,1.77-1.45,3.58-2.37,5.87l-.74-.53c-.84,8.28-3.67,15.79-7,23-.12.35-.24.69-.35,1.05l-.12,0c-.47,1-.94,2-1.42,3l.34.16c-2,5.13-3.73,10.46-6.11,15.5-.79,1.67-3.08,2.77-4.89,3.77-3.29,1.84-6.46,3.55-7.24,7.76l0-.08,0,.08c0,.11,0,.21-.06.32a.77.77,0,0,1-.14.36,51.28,51.28,0,0,1-1.38,5l.14.14c-2.82,8-5.65,16-8.81,24.93-.32,5.51-2.33,10.74-5.72,14.13-1.9,1.9-7.4,1.09-11.37-1.56.09.8.19,1.67.36,2.62-78.49-24.49-157.6,17.12-183.27,89.72a145.63,145.63,0,0,0,73.45,179.91c66.67,32.73,146.5,9.9,187.26-54,19.42-30.46,26.2-64,20.45-99.66-7.45-46.14-32.47-80.57-72.38-104.66.47-1.32.85-2.51,1.31-3.66,5.26-12.92,10.58-25.82,15.75-38.78,1-2.56,2.33-4.26,5.21-4.82a16.66,16.66,0,0,0,12.85-10.39c1.43-3.32,3.65-6.32,5.75-9.87,1.33,1.22,2.52,2.16,3.53,3.28,15.05,16.61,30.68,32.73,45,50,36.64,44.2,69.42,91.33,102.89,137.92.13.18.22.34.33.51C448,359.3,450,358.14,452,357c4.42-2.21,6.4-4.91,6.78-7.94C445.33,330.19,432,311.22,418,291.4c.38.21.76.39,1.14.56-10.42-16.63-22.4-32.45-33.58-48.25l-.23.58L315.34,155c6.16,0,12.85-2.54,19.8,2.08,15.08,10,32,13.81,50.09,14.51,8.63.34,17.23,2.68,23.89,9.78,9.78,10.42,22.81,14.68,36.56,16.93,9.88,1.62,19.8,3,29.66,4.62,5.57.94,10.76,2.64,15.35,6.41,4.42,3.63,9.47,6.52,14.4,9.47,3.05,1.81,4.49,4.71,3.31,8a3.53,3.53,0,0,1-.31.78c-10.31,16.14-11.16,34.57-12.78,52.81-.07.75-.17,1.51-.29,2.36.94,11.72.18,23.69-4,34.19-4,11-5,23,0,34,4.75,11.08,7.6,23.4,6.61,36,.27-.79.55-1.57.83-2.39,4.14,0,8.75-.09,13.34.09a3.15,3.15,0,0,1,2.2,1.9c1.34,4.83,2.44,9.73,3.78,15.25l-22.26-2.43c-.33,1.76-.59,3.53-.79,5.28,7.15.52,14.28,1.69,21.43,2.33,2.78.25,4.12,1.36,5.16,3.94C552,487.51,636.05,523.61,712.52,493.21,790,462.39,826,369.27,789.27,294.63ZM287.83,406.07c-23.77,59.75-93.45,88.07-151.91,61.85-59.53-26.69-85.15-97.11-56.15-154.73,30.37-60.34,98.77-75.76,145.81-54.55q-12.2,31-24.37,61.91c.2,6-5.49,12.38-10.3,16.65-.63,1.71-1.28,3.4-2.06,5A4.66,4.66,0,0,1,186,344.1c-1.75.47-3.64.42-5.42.8a32.44,32.44,0,0,0-5.66,1.63c-7.91,3.21-11.66,11.37-10.57,22.73.8,8.38,5.86,14.36,14.17,15.51a49.84,49.84,0,0,0,13.79-.36c5.16-.74,7.26-5.2,9.34-9.46,5.21-12.05,5.52-27.36,12.34-38.95a11.91,11.91,0,0,1,2-2.29c8.11-20.49,16.23-41,24.52-62,4.34,17.29,4.65,44.49-1.19,61.61.81.49,1.6,1,2.37,1.54A76,76,0,0,0,245,322.1c2.72-16,1.67-32-.57-48-.25-1.78-.48-3.56-.76-5.64C282.05,290.35,311,348,287.83,406.07Zm51.9-249.78.3-1.2,34.8,12C362,167.11,350.59,162.45,339.73,156.29ZM412,178.84l49.9,18.55C443.84,195.06,425.53,193.43,412,178.84Zm120.8,42.34c1.37,1.95,2.62,4,4.11,5.83,6,7.44,12.17,14.78,18.15,22.26.67.85.55,2.34.8,3.52-1.2-.29-2.71-.22-3.54-.94-6.7-5.82-13.37-11.66-19.83-17.74C527.15,229.09,527.29,229,532.8,221.18Zm-21.32,7.47,1.29-.06c0,2.29.6,4.79-.1,6.84-3.74,10.88-7.81,21.65-11.78,32.45a7.44,7.44,0,0,1-.89,1.37A68.15,68.15,0,0,1,511.48,228.65Zm-.26,133.9c-3.59-1.36-6.72-2.18-9.49-3.68-5.22-2.84-5.78-4.51-4.44-10.3.12-.55.29-1.09.41-1.64,1.36-6.17,1.22-6.35-5-7-.54-.06-1.07-.2-3.09-.6l36.63-106.84,26.16,23.65C524.4,285.72,510.8,321.07,511.22,362.55ZM576.73,278c6.77,7,13.56,14.08,20.47,21.09,8.31,8.42,16.64,16.83,25.13,25.07,1.94,1.89,2.4,3.58,1.32,5.89a4.43,4.43,0,0,0-.3.79c-2.79,10.94-9.17,17.08-21,18.48-19.42,2.31-38.7,5.74-57.92,8.68C538.66,340.32,557.79,292.91,576.73,278ZM769.41,379.73A114.13,114.13,0,0,1,667.46,471.5c-54,4.78-94.57-28-110.14-59.89,7,.73,13.62,1.39,20.23,2.11l95.84,10.48c-2.72-1.88-5.39-3.89-8-5.88L634.72,415c-25.35-2.82-50.68-5.71-76-8.39-3.54-.37-5.61-1.56-6.68-5-1.88-6.14-4.07-12.18-6.35-18.9l5.32-.51c20.62-1.89,41.26-3.64,61.85-5.8,4.68-.49,9.16-2.66,13.82-3.59a8.32,8.32,0,0,1,2.56-.06c19.15-5.65,27.62-29,18.8-46.66-3.66-6.8-9-10.86-14.62-14.62-1.83.75-2-.25-5.6-3.67A62,62,0,0,1,618,300a34.94,34.94,0,0,1-4.7-7.58,25.74,25.74,0,0,1-6.27-5.26c-6-6.62-12.8-12.61-19.3-18.91,29.24-24.79,79-33.88,121.26-12C755,280,779.2,329.84,769.41,379.73Z" style="fill:#ad0404"/><path d="M493.39,399.17c1.44-4.14,2.79-8,4.22-12.18,1-12.59-1.86-24.91-6.61-36-5-11-4-23,0-34,4.2-10.5,5-22.47,4-34.19-.09.64-.19,1.33-.3,2.14l-8.12-14.62-1.67.37c-1.27,4.23-2.53,8.46-4,13.26-5.14-3.08-11.27-4.1-13.85-10.3-.25-.62-1.4-1.5-1.72-1.35-.94.42-2.12,1.17-2.38,2-.69,2.27-.73,4.73-1.39,7-1,3.6-2.33,7.12-3.58,10.66-.61,1.71-1.68,3.3-2,5.05-.69,3.72-1.48,7.09-5.86,8.26-.77.21-1.42,1.91-1.62,3a46.28,46.28,0,0,0-.41,5.9c-.35,7.89,3.25,10.36,10.45,7.19,2.17-.95,6.25,1.39,6.26,3.68,0,9,0,18,0,27l-1.54.61c-1.17-.7-2.73-1.12-3.45-2.14l-1.1-1.54c-.38,3-2.36,5.73-6.78,7.94-2,1.14-4,2.3-5.9,3.51,1.26,2,1.13,3.68-.19,6-7.08,12.27-8.52,30.41,11.15,39.35a4.79,4.79,0,0,1,2.2,3.73c-.41,10.85-1.09,21.69-1.71,32.52-.15,2.6-.4,5.19-.61,7.88-4.32-.31-8.12-.89-11.88-.69a5.55,5.55,0,0,0-4,3.11c-2.59,7.74-.66,11.23,7.38,12.58,11,1.84,22,3.15,33.07,4.65,2.54.35,5.14.91,5.79-2.89.9-5.23-.55-9.78-3.76-10.71-3.36-1-6.76-1.83-10.44-2.82.57-14.32,1.12-28.39,1.69-42.46.05-1.25.2-2.49.38-4.57,5.41-.61,10.8-1.87,16.13-1.65,1.13,0,2.25.11,3.38.19.2-1.75.46-3.52.79-5.28Zm-16.57-93.74c-3.84-.42-7.71-.68-11.49-1.4-.77-.14-1.21-2-1.81-3.08l1.33-.94c4,1.68,9,.48,12.38,3.79C477.09,304.34,477,304.88,476.82,305.43Zm-.89-10.36c-3.16-.36-6.28-1.14-10-1.89,1-2.7,1.8-4.84,2.83-7.64,3.28,2.1,5.93,3.68,8.43,5.46.76.53,1.12,1.62,1.66,2.46C477.88,294,476.83,295.17,475.93,295.07Z" style="fill:#776d6d"/><path d="M687.38,412.93c-1.93-5.7-1.66-6.49,3.52-9.71-3.47-5.65-3.47-5.65-9.68-3.23a14.38,14.38,0,0,1,.19-19c11.5-12.19,13.15-27.06,4.33-41.9-2.55-4.29-4.14-8.22-4-13.59.26-8.05-3.37-13.95-8.93-18.42-6.2-3.12-12.46-6.18-18.79-9.08-8-2.28-16.31-3.2-24.68-3.81A26.89,26.89,0,0,0,623,294a14.36,14.36,0,0,1-9.74-1.62A34.94,34.94,0,0,0,618,300a62,62,0,0,0,9.78,7.71l-.56-.53q-4.9-4.6-9.84-9.18l.8-1.41c16.84.43,33.65,1.15,48.85,9.88,8.23,4.73,12.63,11.77,11.28,21.8-2.15-3.45-8.34-4-6.55-10.35.69-2.45-3.92-5.48-6.64-5.19a93,93,0,0,1-14.33.76c-1.75-.08-3.67-2-5-3.47-2.45-2.68-4.7-2.56-7.78-1-2.35,1.18-3.67,2-4.59,2.38,5.66,3.76,11,7.82,14.62,14.62,8.82,17.63.35,41-18.8,46.66a4.71,4.71,0,0,1,2.91,1.18c1.86,2.26,4.77,4.3,3.11,8.42-3.49,8.68-2.3,10.72,6.8,13.85a9.5,9.5,0,0,1,2.66,1.23c7.1,5.29,14.21,10.59,21.19,16,1.44,1.12,2.4,2.87,3.58,4.33l-.76,1-3.27-.36c2.58,2,5.25,4,8,5.88l5.05.55C685.33,425.5,689.68,419.72,687.38,412.93Zm-13-67.07c-1.12-1.55-2-2.86-3-4.16-4.54-6.19-10.16-10.76-17.89-12.46-1.64-.37-3-1.85-5.31-3.31C658.25,324.31,676.15,338.35,674.41,345.86Z" style="fill:#776d6d"/><path d="M665.78,302.56A64,64,0,0,0,654.05,298c6.33,2.9,12.59,6,18.79,9.08A41.91,41.91,0,0,0,665.78,302.56Z" style="fill:#ad0404"/><path d="M385.51,243.71c11.18,15.8,23.16,31.62,33.58,48.25,5.52,2.44,9.94.64,13.79-2.17s7.22-6.52,10.66-10a3.7,3.7,0,0,0,.8-2.77c-.56-4.14-1-8.07.22-12.37,1-3.76-3.74-7.37-7.43-6.93-1.88-4.32-3.67-8.51-5.57-12.64-.39-.85-1.24-2.19-1.8-2.15-8.07.56-8.14-7-10.62-11.29-2-3.44-3.59-5.66-7.55-6.12-3.16-.36-6.14-1.16-4.16-5.63.27-.61-.34-1.87-.89-2.55-2.3-2.84-4.74-5.56-7.43-8.68l-7.26,4.46c-2.4-2.66-4.57-5.25-8.42-2.06-3.47,2.89-1.78,5.3.31,8.13l-6.51,5.3c1.64,2.76,3.1,5.47,4.84,8a4.8,4.8,0,0,0,2.77,1.36c3.34.8,4,2.32,2.46,5.49C386.54,240.93,386,242.56,385.51,243.71Z" style="fill:#0593aa"/><path d="M239,224c3.39-3.39,5.4-8.62,5.72-14.13-.23.64-.46,1.28-.69,1.94-3-5.62-6.19-3-9.41-2.55-4.49.69-3.41,5-5.45,7.37-2.78-1.8-2.15-4.25-.8-6.22a25.86,25.86,0,0,1,5.93-6.48,44,44,0,0,0,14.37-17.36c.59-1.25,2.45-1.89,3.72-2.81l1,1a51.28,51.28,0,0,0,1.38-5c-.48.8-2,1.44-3.14,2.29,1.68-13.43,3.2-25.66,4.72-37.81l16.52,7.65c.48-1,.95-2,1.42-3-6.69-1.86-12.64-4.45-17.75-8.66-.9-.75-1.23-2.4-1.47-3.7q-2-11-3.69-22c-.17-1.08-.08-2.64.57-3.31,2.32-2.38,4.95-4.47,7.46-6.68-2,5.1,0,7.86,3.58,10.34q-.14-1.89-.24-3.75l-.58-.42.53-.37A98.72,98.72,0,0,0,261.62,99c-3.25,3-6.6,5.8-9.94,8.66-.51.44-1.12.77-2.09,1.43-1-5.92,5.06-14.56,10.4-15.25a1,1,0,0,1,.3,0,25.15,25.15,0,0,0-1.27-3,10.34,10.34,0,0,1-1.71,1.24c-5.56,3.3-10.59,7.31-10.89,14.54a15.71,15.71,0,0,1-4.6,10.45c-6.64,7.28-13.33,14.57-19.22,22.43-3.4,4.53-5.74,10-7.73,15.38-2.41,6.5-.75,12.41,4.43,17.32a40.16,40.16,0,0,0,17.36,10.08c3.08.83,6.23,1.42,9.58,2.17a34.43,34.43,0,0,1-11.14,15.38,55,55,0,0,0-8.22,7.84c-3.26,4-2.87,6.85-.15,11.16a8.66,8.66,0,0,1,.9,3.62C231.6,225.09,237.1,225.9,239,224Zm10-108.82,3.67,20C247.08,130.83,245.15,121.46,249,115.18Zm-5.57,65.87a40.83,40.83,0,0,1-22.39-11c-4.24-4.09-5.79-9-3.64-14.23a88.2,88.2,0,0,1,9.3-17.38c4.76-6.69,10.53-12.65,15.86-18.92l1.26.69a27.31,27.31,0,0,0,7.48,19.24,6.3,6.3,0,0,1,1.24,3.81,118.46,118.46,0,0,1-3.72,34.35C248,180.77,246.59,181.56,243.46,181.05Z" style="fill:#514444"/><path d="M265.07,116.31c4.82,3.23,9.46,6.73,14.07,10.25.87.67,1.81,2.38,1.54,3.25-1.78,6-3.83,11.85-5.92,18.07,3.3-7.19,6.13-14.7,7-23L269.38,116A11.14,11.14,0,0,1,265.07,116.31Z" style="fill:#ad0404"/><path d="M263,95.5a2.88,2.88,0,0,1-.51,2.72c-.27.26-.55.5-.82.75a98.72,98.72,0,0,1,1.08,11.39c7.31-5.06,12.63-11.11,14.36-18.19,5.18.52,9.45,1.12,13.73,1.31,3,.14,6.62,4.55,5.69,7.92-.49,1.76-1.1,3.49-1.75,5.21a89.17,89.17,0,0,0,17,2.51c.19-.14.37-.27.57-.4,1-.61.75-3,1.33-4.41.74-1.9,1.27-4.59,2.72-5.35,2.48-1.29,2.24-2.7,1.93-4.78-.38-2.55-.41-5.14-.59-7.72C313.53,81,314.32,76.2,321,73a20,20,0,0,0,3.64-2.13,5.81,5.81,0,0,0,1.6-8c-1.18-1.92-4.06-4-6-3.93-3.15.18-6.19,2.2-9.3,3.37-1.77.66-3.66,1.83-5.38,1.65-9.34-1-17,3.22-24.58,7.59-4.84,2.77-9.88,5.21-14.51,8.29-2.14,1.41-4.5,3.79-5,6.09A8.21,8.21,0,0,1,259,90.83a25.15,25.15,0,0,1,1.27,3A4.47,4.47,0,0,1,263,95.5Z" style="fill:#514444"/><path d="M265.07,116.31a11.14,11.14,0,0,0,4.31-.35l-6.63-4.81q.11,1.86.24,3.75c.26.18.52.36.79.53Z" style="fill:#ad0404"/><path d="M571.83,114.42c2.73-1.31,6.53-2.83,7.36-5.15,1.68-4.69,5.16-5.27,8.86-6.36,2.56-.76,5.47-1.26,7.46-2.83,4.48-3.53,9.56-4,14.78-3.88,6.58.1,9.62-5.28,15.49-8.57-4.9-2.65-8.6-4.9-12.51-6.7-5-2.31-10.11-4.16-15.89-3.23a83,83,0,0,1-15.12,1.47c-23.24-.6-46.48-1.52-69.72-2.35-2.7-.1-5.63-.7-6.6,2.84-.93,3.35.73,6,3.52,7.37a16.3,16.3,0,0,0,6.9,1.31c9,.09,17.62.77,24.06,8.55,3.44,4.16,9.83,5,11.62,11.64.88,3.22,1.9,5.87.79,9.09l-.54,1.58a83,83,0,0,1,12.52,2.7A13,13,0,0,1,571.83,114.42ZM546.54,89.6l15.57,1.15c-1.37,4.41-4.32,5.75-7.85,6C550,97,548.87,93.43,546.54,89.6Zm12.56,13.72c0-.87-.24-2.14.22-2.53A35.06,35.06,0,0,1,563.87,98l.8.78a37.24,37.24,0,0,1-3.16,4.18C561.05,103.39,559.92,103.21,559.1,103.32Z" style="fill:#514444"/><path d="M180.39,215.54C98.58,215.54,32,282.1,32,363.91S98.58,512.29,180.39,512.29s148.38-66.56,148.38-148.38S262.21,215.54,180.39,215.54Zm0,262.91A114.54,114.54,0,1,1,294.93,363.91,114.66,114.66,0,0,1,180.39,478.45Z" style="fill:#343434"/><path d="M656.29,209.54c-81.82,0-148.38,66.56-148.38,148.38S574.47,506.3,656.29,506.3s148.38-66.57,148.38-148.38S738.1,209.54,656.29,209.54Zm0,262.92A114.54,114.54,0,1,1,770.83,357.92,114.67,114.67,0,0,1,656.29,472.46Z" style="fill:#343434"/><polygon points="560.57 242.3 589.6 270.06 576.73 278.02 555.06 249.28 560.57 242.3" style="fill:#ad0404"/><polygon points="549.58 253.54 576.73 278.02 552.32 251.85 549.58 253.54" style="fill:#ad0404"/><polygon points="555.79 405.94 514.43 401.47 514.93 406.9 561.14 412.01 555.79 405.94" style="fill:#ad0404"/><polygon points="238.11 227.22 253.94 235.08 238.69 276.45 220.02 272.76 238.11 227.22" style="fill:#ad0404"/></svg>