<svg id="fc2af7cf-4172-4bd1-bf14-e58a8acd91b3" data-name="Capa 1" xmlns="http://www.w3.org/2000/svg" viewBox="0 0 841.89 595.28"><rect x="665.28" y="243.71" width="6.97" height="271.05" style="fill:#776d6d"/><rect x="665.28" y="235.15" width="6.97" height="271.05" transform="translate(1039.44 -298.08) rotate(90)" style="fill:#776d6d"/><rect x="659.07" y="241.79" width="6.97" height="271.05" transform="translate(460.86 -357.98) rotate(45)" style="fill:#776d6d"/><rect x="661.79" y="235.15" width="6.97" height="271.05" transform="translate(1397.81 162.37) rotate(135)" style="fill:#776d6d"/><rect x="668.76" y="238.64" width="6.97" height="271.05" transform="translate(1262.97 -118.76) rotate(111.06)" style="fill:#776d6d"/><rect x="664.48" y="238.64" width="6.97" height="271.05" transform="translate(714.49 -390.04) rotate(64.23)" style="fill:#776d6d"/><rect x="661.79" y="239.94" width="6.97" height="271.05" transform="translate(179.33 -213.96) rotate(21.06)" style="fill:#776d6d"/><rect x="661.79" y="239.94" width="6.97" height="271.05" transform="translate(-91.79 273.41) rotate(-21.76)" style="fill:#776d6d"/><rect x="175.42" y="243.71" width="6.97" height="271.05" style="fill:#776d6d"/><rect x="175.42" y="235.15" width="6.97" height="271.05" transform="translate(549.59 191.77) rotate(90)" style="fill:#776d6d"/><rect x="169.21" y="241.79" width="6.97" height="271.05" transform="translate(317.38 -11.61) rotate(45)" style="fill:#776d6d"/><rect x="171.94" y="235.15" width="6.97" height="271.05" transform="translate(561.58 508.74) rotate(135)" style="fill:#776d6d"/><rect x="178.91" y="238.64" width="6.97" height="271.05" transform="translate(597.12 338.38) rotate(111.06)" style="fill:#776d6d"/><rect x="174.63" y="238.64" width="6.97" height="271.05" transform="translate(437.62 51.09) rotate(64.23)" style="fill:#776d6d"/><rect x="171.94" y="239.94" width="6.97" height="271.05" transform="translate(146.62 -37.96) rotate(21.06)" style="fill:#776d6d"/><rect x="171.94" y="239.94" width="6.97" height="271.05" transform="translate(-126.7 91.8) rotate(-21.76)" style="fill:#776d6d"/><path d="M640.78,363.89l-.3-.3-.39.34C640.32,363.91,640.54,363.89,640.78,363.89Z"/><path d="M653.05,231.52a152.84,152.84,0,0,0-68.72,21.08c-1.49.87-3,1.71-4.47,2.55l-.2-.17c-5,4.17-11.48,7-17,10.73.15,2.2-1.8,4-5.8,7.79a143.71,143.71,0,0,0-32.36,46.3c-.84,1.87-1.79,3.7-2.06,4.27h-.64a100.74,100.74,0,0,1-5.33,14.28l.06-.06c-.17,6.31-1.42,11.89-2.35,17.53a12.19,12.19,0,0,1-.34,1.51c-.34,3.16-1.36,6.18-1.85,9.39h.42V387l-.16,0c.75,4.2,1.66,8.14,1.75,12.3,3.23,11.23,6.36,22.13,9.54,33.17l-.73-.1q1.15,2.7,2.1,5.47c3,2.5,5.33,5.91,7.7,10,30.19,52.42,92.9,81.57,152.85,71.9,64-10.31,113.09-56,125-116.19C828.86,310.17,751.27,225.41,653.05,231.52ZM787.45,403.4l-1.53-.37c-.18.79-.35,1.58-.53,2.37l1.29.49c-1.73,5.29-3.36,10.24-5,15.19l-.39-.1c-.29.76-.59,1.52-.91,2.27l.63.22-10.71,19.29-1.05-.59c-.52.74-1,1.47-1.58,2.21.33.34.65.68,1,1l-9.89,12-.49-.25c-.65.76-1.33,1.48-2,2.19l.53.58-16.08,14-.41-.37c-.9.72-1.81,1.43-2.76,2.11l.12.31-4,2.4c-2.73,1.79-5.51,3.51-8.16,5.28a20,20,0,0,1-3.94,2l.06.12-21.43,8.58c-.17-.77-.33-1.53-.5-2.29a5.66,5.66,0,0,1-.94.09h-.65l.54,2.48-16.25,3.26-.37-1a16.58,16.58,0,0,1-2.71.92c0,.23.07.45.1.68l-23.22,1.06c.06-.4.11-.79.17-1.18l-1.77.17-.09.59-2.77-.37c-7.48.5-14.66.26-21.44-1.81a45.06,45.06,0,0,1-9.53-.8,4.29,4.29,0,0,1-3.56-4.71,16.61,16.61,0,0,1-3.52-1.56l-.31-.1,0-.07a26.06,26.06,0,0,1-3.27-2.4l-.74.6-12.86-6.65c.39-.91.78-1.79,1.16-2.68-.67-.37-1.33-.75-2-1.15l-1.71,2.57L575.85,466.6l2.22-2.1-.75-.68-.89-.89L574,464.66l-10.66-11.5L565,451.1c-.47-.46-.91-.93-1.38-1.37l-.27-.26-2.07,1.35-6.89-10.41.36-.53q-1.92-2.5-3.6-5.18a8.92,8.92,0,0,1-1.51-1.93l.25-.17c-.51-.88-1-1.77-1.46-2.68l-.34.1c-2.1-5-4.07-9.8-6.08-14.65l1.73-.88a24.2,24.2,0,0,1,0-2.55l-2.77.64c-1.22-5.19-2.39-10.15-3.54-15.07-2.63-3.35-2-8.06-1.19-12.59l-.41,0V371.52h80c5.52-.64,11-1.33,16.57-1.84a9.92,9.92,0,0,1,2.1-3.12c-1-.53-2-1.47-3-2,1,2.17.9,3.28-2.19,3.3-11.8.09-23.71,1.8-34.94-3.67-2.67-1.3-5.87-1.59-8.83-2.34h0l15.25,6.31-.15,1.35H536.15c0-.88-.12-1.8-.16-2.69a28.73,28.73,0,0,0-.21,9.09,28.73,28.73,0,0,1,.21-9.09,5.68,5.68,0,0,1,.78-3.69c.34-1.38.73-2.77,1.14-4.19h-1.17c.86-4.05,1.5-7.06,2.23-10.48l.93.28a5,5,0,0,1,1.18-2l-1.71-.69c1.57-4.86,3.18-9.81,5-15.41l.07,0a3.46,3.46,0,0,1,.39-.63c.23-.31.47-.61.71-.91l-.74-.24,10.92-19.33.57.3c.07-.19.13-.38.19-.57a24.33,24.33,0,0,1,1-2.29l-.07-.07.31-.38a37,37,0,0,1,8.06-10l1.59-2,.4.24c.47-.39.94-.78,1.41-1.15a5.12,5.12,0,0,1,1-.62c-.34-.44-.7-.88-1.08-1.36,2-1.52,4.1-3.38,6.47-4.9,1-.66,2.91-1.36,3.77-1.06,1.32-4,5-7.13,9.2-9l0-.07c3.35-2.24,6.15-3.85,8.63-5.83a7.54,7.54,0,0,1,3.85-1.83,5,5,0,0,1,1.11-.39c1.59-.38,3.13-.86,4.66-1.39a2.43,2.43,0,0,1,1-1.61c5.51-2.82,11.46-4.83,17.49-7.23,0,.13.1.23.14.35a3.87,3.87,0,0,1,3.6-3.68,109.69,109.69,0,0,1,17.73-.89l0-.22h23c0,.38-.1.75-.16,1.13h.18c.59-.11,1.18-.2,1.78-.3.08-.49.17-1,.26-1.48,2.14.28,4,.61,5.78.87a31.15,31.15,0,0,1,7,.45,4,4,0,0,1,1.65.69,3.19,3.19,0,0,1,1.34,1.16l2.73.45.18-1.23,22.32,7-.31.59c.84.34,1.67.68,2.51,1,.13-.16.25-.32.39-.48l14.21,7.42-.24.5c.72.46,1.44.92,2.15,1.39l.54-.8,17.35,13.24-.77,1.09c.76.59,1.54,1.16,2.33,1.71l1.07-.52,3.44,3.73a26.54,26.54,0,0,1,4,3.66,78.61,78.61,0,0,1,4.93,6.43l.23-.14,11.78,18.09-1.28.69c.39.82.79,1.63,1.16,2.45l1.49-.4c2.1,5.06,4,9.71,6,14.57l-2.2,1c.12.75.23,1.51.32,2.27l2.95-1c1.65,7.5,3.17,14.37,4.83,21.93l-1.85.07,0,1,1.89-.11v18.1l-1.11,0c0,.85,0,1.71,0,2.56h1.78C789.42,389.43,788.45,396.29,787.45,403.4Z" style="fill:#343434"/><path d="M637.59,395.79c-1.24,1.21-3,1.88-4.6,2.8l6.8-1.49c-.47,1.46-.79,2.42-1.1,3.37,1.81-1.58,3.54-3.85,5.49-4.27a10.22,10.22,0,0,0-3.58-4A17,17,0,0,1,637.59,395.79Z"/><path d="M679.07,405.31a12.34,12.34,0,0,1,1.31-1.58c-.09-.74-.17-1.49-.26-2.26l1.69.88q.5-.45,1-.93l-1.16-1.37a24.72,24.72,0,0,1-3.94,2.39l.23.06Z"/><path d="M688.8,394.48l0-.14.15,0c.29-.26.59-.52.92-.77a18.64,18.64,0,0,1,2.23-1.47c.15-1.2,1.22-2.13,3.45-2.74l1.34.77c.68-.18,1.37-.35,2.08-.47l.5-.07-2.18-3.72a50.27,50.27,0,0,1,5.35-1.6c.09-.46.18-.92.25-1.38a10.77,10.77,0,0,1-1.14-.15c-1.16-.2-2-1.88-3.05-2.89l4-1.08-5.79-5,6.93-3.83v-1.1l-7.61,2.62-4.77-6.23,12.36.95,0-2.7q-3.6.36-7.21.68c-1.61.14-3.34-1-5-1.63-1-.17-2-.25-3-.38a5.34,5.34,0,0,1-1.83.08,36,36,0,0,1,4.4,13.38c1.43.35,3.5.31,4.08,1.19,1.06,1.62,1.21,3.8,1.84,6.14h-5.88a25.29,25.29,0,0,1-4.8,12.49l.75.92A19,19,0,0,1,688.8,394.48Z"/><path d="M597.84,360.85c11,.84,22.62-3.5,33,3.14-1-1.09-1.95-2.17-3.39-3.79a93.59,93.59,0,0,1,9.86.1c-1.63-1.76-3.3-3.57-5.08-5.34.05.2.11.4.16.6l-11.87-.74-.81,1.44c-.9.56-1.8,1.61-2.69,1.61-15.51-.1-31-.33-46.54-.53-6.61.52-13.2,1.17-19.81,1.53-4.06.21-8.15.07-12.81.05-.41,1.42-.8,2.81-1.14,4.19.72-.94,2.05-1.53,4.44-1.52q22.15.15,44.31.24h0C589.64,361.47,593.79,360.54,597.84,360.85Z"/><path d="M624.48,375.23c1.54-.12,3.08-.22,4.62-.28-1.82-.29-3.64-.65-5.45-.93C623.91,374.41,624.18,374.8,624.48,375.23Z"/><path d="M250.26,248.9c-5.12,6.15-6,16.53-7.45,25.45.54-1.12,1.06-2.24,1.6-3.38l19.36,13.87-.53.63c.76.6,1.52,1.23,2.26,1.87l.55-.38,11.08,11.52-.19.2c.58.65,1.17,1.3,1.75,2l.28-.22c.64.94,1.27,1.88,1.91,2.81,2.12,2.54,4.19,5.11,6.21,7.64,6.81,8.57,10.54,17.48,13.77,27.87a4.54,4.54,0,0,1,.06,2.55c1.33,5.63,2.67,11.25,4.14,17.45a5.54,5.54,0,0,1,.66,6.32c.24,4.69.48,9.16.72,13.7l-.6,0a4.9,4.9,0,0,1,.69,1.94h.13c0,.21-.05.42-.08.63a6.42,6.42,0,0,1-.24,1.84c-.92,7-1.73,13.14-2.58,19.58l-1.31-.21a4.64,4.64,0,0,1-2,2.17l2.47,1.13c-1.07,3.31-2.12,6.61-3.19,9.95a45.85,45.85,0,0,1-2.53,7.72l0,0-.19.34c-.32.77-.64,1.55-1,2.33-1.81,4.24-3.58,8.74-6.3,12.48-.72,1-1.48,1.94-2.24,2.87l-.49.9-.2-.06c-.73.88-1.46,1.76-2.17,2.66l.35.46-4.67,5.85a45.61,45.61,0,0,1-7.05,8.58l.1.12-16.32,14.46-1.65-1.81c-.63.52-1.27,1-1.89,1.57l1,1.94-13.1,8.12-.35-.29c-1,.66-2.06,1.27-3.11,1.87l.19.46-5,2c-2.14,1-4.32,1.86-6.54,2.62L218,494.5c-.15-.33-.28-.63-.43-.95-1,.21-1.94.41-2.93.59,0,.41.07.8.1,1.22l-12.85,2.74a4.1,4.1,0,0,1-2.48,1.23c-.45.07-.89.11-1.33.14v0H197c-8.52-.12-17,.46-25.56.39l0,.26-2.24-.28c-9.73-.22-18.89-2.09-28.22-4.74a82.5,82.5,0,0,1-16.63-6.89l-10.63-5.32c.11-.39.22-.76.33-1.13-.76-.55-1.5-1.1-2.24-1.67l-1.09,1.29-18.6-13.68c-3.74-2.34-6.35-5.93-9.08-9.77l-2.81-3,.34-.43c-.58-.77-1.17-1.54-1.8-2.29l-.06-.09-.81.37c-3.9-5.93-7.69-11.72-11.46-17.47l2.66-1.71c-.44-.59-.87-1.18-1.32-1.77l-2.85.58L58.65,418l2.09-1.2a12.83,12.83,0,0,0-1.12-2.14l-2.11.53c-.34-1.4-.68-2.8-1-4.2a3.73,3.73,0,0,1-.34-1.4c-1-4.32-2.08-8.63-3.14-13a3.93,3.93,0,0,1-.65-2.77c.05-.43.08-.87.11-1.3H52.3c-.21-3.69-.39-6.89-.57-10a42.9,42.9,0,0,1-.58-10.74,45.66,45.66,0,0,1,1-5.72c.57-4.81,1.12-9.42,1.71-14.4l.63.15A35.44,35.44,0,0,1,56.68,341c.38-1,.81-1.93,1.25-2.86l-.22-1.3c.34-.1.69-.22,1-.35.81-1.57,1.66-3.13,2.49-4.69l-.9-.42c3.35-6.46,6.54-12.63,9.85-19l.85.47a4.74,4.74,0,0,1,1.62-2.34l-.51-.71c2.19-2.9,4.6-5.66,6.5-8.71,1.34-2.15,2.78-2.95,4.41-2.72a4.32,4.32,0,0,1,1.66-1.41c-.48-2.11.57-4,2.86-5.78,3.24-2.56,6-5.65,9.32-8.11a4.88,4.88,0,0,1,2.2-.76,4.5,4.5,0,0,1,3.31-1.81c1.58-4.37,5.59-5.82,9.22-7.68,2-3.3,5.69-5.6,9.13-7.37a83.85,83.85,0,0,1,19.53-7.43,100.47,100.47,0,0,1,19.82-2.35c0-.19,0-.37,0-.55L183,253.56c-.1.74-.19,1.47-.28,2.21.65,0,1.29,0,1.94.09.1-.7.21-1.41.32-2.12l18,2.47c-.07.45-.15.89-.22,1.33l.67,0,.21-1.61,20.08,6c2.68-7.63,9.31-15.05,5.05-21-.27-.44-.57-.86-.87-1.28v0c-47-14.1-91-9.2-131.8,16.46-31.46,19.78-52.09,47.7-62,82.6C13.9,409.61,52.28,484.44,122.2,511.39c72.31,27.86,152.38-.08,189.23-66.14C349.16,377.62,325.43,288.93,250.26,248.9Z" style="fill:#343434"/><path d="M280.14,131.4c-.64,1.72-.93,3.73-2,5.19a69.66,69.66,0,0,0-5.67,9.08,76,76,0,0,0,16.25,3.46c-.84-2.13,1.57-5.54,2.66-8.31,1.88-4.78,3.91-9.51,5.84-14.28,2.45-6.07-2.89-13.1-8.79-10.49-8.06,3.56-13.49-1.46-19.62-3.44-14.52-4.67-29-8.83-44.49-8a43.16,43.16,0,0,1-5.83,0,133.43,133.43,0,0,1,5.46,13.94C237.79,116.38,257.87,121,280.14,131.4Z" style="fill:#5e5e5e"/><path d="M232.81,235.91l16.24-49.59,6.16,1.3c.54-1.44,1-2.87,1.41-4.31-4.11-2.58-9.66-4.2-10.43-7-3.54-12.93-12.11-21.36-23.09-28.37-1.7-1.08-3.51-3.38-3.6-5.2-.4-7.78-.17-15.59-.17-23.21a33.16,33.16,0,0,1,4.61-1,133.43,133.43,0,0,0-5.46-13.94c-11-.83-15.75-6.49-16.77-18.91a7.36,7.36,0,0,0-4.39-5.23c-3.81-1-8-.76-12-1-.15,2.57-1.16,5.46-.28,7.65,2.4,6,1.59,10.24-3.65,14.7-2.82,2.41-3.56,7.09-5.23,10.75-2.29,5-4.57,10-7,15.38,4.24,3,8.18,1.41,9.49-5.33,2.19-11.33,2.92-12.76,10.37-19.87l1.76,1.33c8.23,6.21,8.23,6.21,1.24,14.07-9.28,10.44-10.86,25-3.72,38.37,9.52,17.77,26,26.7,45,32.11,1.53.44,3.74-1.12,5.56-1.92a37.49,37.49,0,0,0,3.83-2.2c.62,1.42,1.93,2.93,1.74,4.24-.83,5.88-1.27,12-3.38,17.47C237.25,216,232.3,225.38,228,235c-.5,1.12-.07,2.62-.07,4.58.3.42.6.84.87,1.28l.13.2a67.41,67.41,0,0,1,4.57-5ZM217,120v24.57C207.85,132.68,208,122.34,217,120Zm-10,4.26c1,4.75,1.85,8.91,2.85,13.71C202.36,130.66,201.85,128.18,207,124.27Zm-6.66,6.31c11.9,10,18,23.22,21,38.07C200.16,160.27,190.37,140,200.33,130.58Zm20,27.14,17.9,18.67C227.52,173.38,223.09,168.74,220.38,157.72Zm-.23-9.07c10.78,6.45,20.39,13.61,23.28,27.56C231.18,168.68,219.63,154.9,220.15,148.65Z"/><path d="M507.33,387.68l-11.47-21H512c.49-3.21,1.51-6.23,1.85-9.39-1,3.32-3.19,3.37-6.36,1.05-1.39-1-2.59-2.25-4.49-3.93l13.48-16.1a100.74,100.74,0,0,0,5.33-14.28H505.71l.83-2.66c-9-.64-17.18,4.6-22.6,11.61q-1.8,5.79-3.59,11.56h-7.63c7.54,4,5.55,8.25,3.47,12-5.87.29-11.08-.16-15.89,1a10.21,10.21,0,0,1-7.07-.47,46.77,46.77,0,0,0-7.45,3.75c-3.07,1.84-5.76,5.18-9,8l1.09.94c-12.68,18.28-11.63,35.67,4.12,52.34-7.5,9.14-14.73,18.27-22.33,27.1-4.64,5.39-10.74,3.26-17.61,1.69v11.4c6.59.92,11.94,1.72,17.32,2.38a17.86,17.86,0,0,0,4.56-.09c5.13-.68,10.24-1.47,16.83-2.43V451l-9.35,1.68,17.85-26c10.44,5,20.68,3.85,31.4,3.09l1.21-.05a26,26,0,0,0,5.45-2.22l-2-.27a47.42,47.42,0,0,0,13.39-11c5.13-8.26,7.88-18.87,9.65-28.72Z" style="fill:#776d6d"/><path d="M511.85,433.24c5.75.19,9.81,1.84,13.1,4.6q-.94-2.77-2.1-5.47l-35.53-4.81a26,26,0,0,1-5.45,2.22C491.74,429.42,501.82,432.9,511.85,433.24Z"/><path d="M183,357c-.14-1.16-.45-2.31-.67-3.42a7.84,7.84,0,0,1-4.31.9c-.16.87-.32,1.76-.5,2.7a27.94,27.94,0,0,1-2.9-3.19c-1.26-.26-2.57-.59-3.91-.87-.13,0-.26-.08-.38-.12a6.33,6.33,0,0,1-1.73,5.15l-6.45-3.38q.28,3.69.59,7.38l-1.28,1.27-2.85-2.18a22.3,22.3,0,0,0-2.25,3.83l2.76,2.29-1.62,2.43-2.57-.79a31.86,31.86,0,0,0-.88,4.26c.59.51,1.21,1.11,1.94,1.81l-2.39,3.16c0,.57,0,1.14-.07,1.71,1.21,1.07,2.44,2.18,3.86,3.45a15.9,15.9,0,0,1-3.91,2.94c0,1.33,0,2.66.13,4,2-.85,4.06-1.71,6.34-2.7,0,4-1.51,6.22-3.45,7.71l.67.18c1.26.33,2.49.62,3.72.89,1.27-.91,2.58-1.78,3.78-2.72l2,1.89-.84,1.74c1.45.22,2.91.39,4.38.52l.47-1,3,.83c0,.1,0,.21,0,.32,1.24,0,2.48,0,3.76,0l.71,0a10.63,10.63,0,0,1,1.8-2.08,10.62,10.62,0,0,1,1.08,2l5-.2-.21-1.24,2.4-.48a15.16,15.16,0,0,1,2,1.63c1.58,0,3.16,0,4.74.1l-4.13-5.25,6.94-.34c.26-.91.51-1.82.78-2.73-.46-1.37-1-3-1.82-5.48l3.07,1.15c.53-1.84,1.06-3.68,1.55-5.53-.62-.54-1.25-1.06-1.88-1.51.85-1.29,1.69-2.58,2.54-3.86-2.5-2.53-1.64-5.53.59-6.24a12.45,12.45,0,0,1,.47-2.64,189.9,189.9,0,0,0-16.83-10.92A12.7,12.7,0,0,1,183,357Z" style="fill:#776d6d"/><path d="M640.09,363.93c-1.31,1.21-2.58,2.59-4.12,3a2.11,2.11,0,0,1-1.47-.36,9.92,9.92,0,0,0-2.1,3.12l3.18-.29c.18,0,.49.29.79.72a47.28,47.28,0,0,1,4-6.2Z" style="fill:#05aa9e"/><path d="M649.57,353.92c-.45-1.17-.91-2.34-1.37-3.52a5.31,5.31,0,0,1-3.71-3.4l-8.09-10.15c-15.95-20-31.34-39.37-46.78-58.75h0l-1.12-1.4h0l-14.42-17.83a48.35,48.35,0,0,0,5.59-3.89c-9.89-8.2-10.84-19.56-14.21-29.9-3.68-11.27-5.7-13-22.72-19.88,3.61-11.69,7.17-23.49,11-35.2.36-1.1,2.57-1.82,4.06-2.35,5.14-1.82,6.45-6.13,2-9-2.47-1.58-3.23-3.14-3.17-4.9-5.1-.37-10.15-.75-15-2.28a12.73,12.73,0,0,1-2.58,2.16c-2,1.29-1.86,5.86-2.73,8.92-2.24,7.79-4.25,15.66-7,23.28-.49,1.33-4.22,2.32-6.38,2.21-23.82-1.2-47.64-2.63-71.45-4q-71.79-4.22-143.56-8.46L280.42,174c1.79-4.11,3.23-7.77,5-11.29,2.1-4.27,5.61-7.85,3.33-13.54h0a76,76,0,0,1-16.25-3.46c-4.68,8.84-7.74,18.38-11.41,27.66-1.16,2.93-2.45,5.81-4.25,10.09l-.18-.11c-.41,1.44-.87,2.87-1.41,4.31h.06l-20,49-1.76-.56a67.41,67.41,0,0,0-4.57,5c4,5.93-2.53,13.27-5.18,20.82l1,.29a65.52,65.52,0,0,1-2.29,6.31q-7.07,14.63-14.22,29.21a5.36,5.36,0,0,1-.41,2,5.58,5.58,0,0,1-.59,4.29l.67.32q-6.9,16.95-13.81,33.9l-.54-.17a4.92,4.92,0,0,1-2.09,3.77c0,.19-.09.38-.14.56a22.26,22.26,0,0,1-5.05,11.92,189.9,189.9,0,0,1,16.83,10.92,8.46,8.46,0,0,1,.42-1.09l-.86-.56,7.58-10.15c-.48-1-1.63-2.31-1.32-3,3.86-8.43,7.93-16.77,11.94-25.14-.29-.81-1.08-1.83-.82-2.39,7.41-15.92,14.91-31.82,22.81-48.59,1.42-8.92,2.33-19.3,7.45-25.45l-.25-.14,12.35-30.37L436.78,368.85c3.24-2.78,5.93-6.12,9-8a46.77,46.77,0,0,1,7.45-3.75,15.66,15.66,0,0,1-3.44-2.34q-86.16-74.57-172.48-149c-7.62-6.58-7.59-6.61-3-16.32,3.8.51,7.27,1,10.76,1.41,1.23.14,3.44.34,3.6-.08,1.73-4.39,5.45-2.68,8.34-2.53q61.21,3.24,122.41,6.7c22.05,1.22,44.1,2.38,66.13,3.87,4.26.29,8.42,2,12.1,2.87l25.49,5c-13.37,43-26.29,84.61-39.23,126.25,5.42-7,13.64-12.25,22.6-11.61q11-35.42,21.87-70.63c.25-.81.71-2.25,1-2.23,6.74.47,4-5.12,5.08-7.87,1.31-3.29,1.33-7.07,2.08-11.7,1.6,1.84,2.76,2.67,3.2,3.76,4.13,10.17,12.1,17.65,18.84,26.06,2.63,3.29,4,5.22,4.1,6.91l17.07,18.85c-.17.38-.34.75-.47,1.14a.7.7,0,0,1,.2.08,41.2,41.2,0,0,1,8,6.92q8.55,10.14,16.46,20.77c1.37,1.85,1.56,4.51,2.29,6.8,7.94,12.17,22.18,20.09,26,34.69,1.78,1.77,3.45,3.58,5.08,5.34l.4,0c1.16.14,2.1,1.88,3.15,2.88l-.43.37.1.09A84.22,84.22,0,0,1,649.57,353.92Zm-77.51-98c-6.77-8.39-12.55-15.54-18.3-22.7-2.16-2.68-4.38-5.33-6.31-8.16a6.87,6.87,0,0,1-.66-3.63c-.07-4.09,0-8.19,0-12.27,8.3,1.78,13.6,6.92,16.3,15.19,3,9.26,6.69,18.32,10,27.5C573.27,252.41,572.73,253.26,572.06,255.88Z" style="fill:#05aa9e"/><path d="M634.08,375.4l-.22,0a34.9,34.9,0,0,1-4.76-.48c-1.54.06-3.08.16-4.62.28l.91,1.32-89.15,8.37-.15.83L512.29,387l-3.89.53c-1.77,9.85-4.52,20.46-9.65,28.72a30.8,30.8,0,0,0,6.07-12.49c1.2-5.22,3.83-6.51,8.88-5.63.11.39.22.77.34,1.17,0-.79-.07-1.57-.14-2.34l22.33-1.57a8.14,8.14,0,0,0,1.2,2.12c-.12-.48-.23-1-.34-1.45a17.31,17.31,0,0,1,2.77-.91c19-1.87,38-3.74,57.06-5.48,1.07-.09,2.26,1,3.39,1.52,9.91-1.17,19.81-2.42,29.73-3.41,1.31-.13,2.77,1.12,4.16,1.74A20.65,20.65,0,0,1,634.08,375.4Z" style="fill:#05aa9e"/><path d="M684.41,435.61a74.62,74.62,0,0,1-6.33-6.78c-2.69-3.07-5.91-5.79-8.12-9.15a8.78,8.78,0,0,1-.63-6.81c.36-1.1,3.41-1.38,5.25-2q1-4.32,2.08-8.66l1,.27a24.72,24.72,0,0,0,3.94-2.39l-2-2.33,6.42-2.58.23.28a25.29,25.29,0,0,0,4.8-12.49h-2c.66-2.62,1.25-5,1.84-7.35l.07,0a36,36,0,0,0-4.4-13.38,4.79,4.79,0,0,1-1.6-.5c-3.94-2.1-7-5.38-10.89-7.56-.83-.46-1.7-1-2.61-1.47a26.41,26.41,0,0,1-4.49-1.64l.15-.54a24.07,24.07,0,0,0-3.15-1.1c-.87.78-2.24,1.63-3.1,2.42-.71-.89-1.8-1.8-2.53-2.69-1,.16-2,.41-3,.65.67,2.55-1,4.15-5.64,4.74l-.24-.61a84.22,84.22,0,0,0-9,9.76l.2.21-.38,0a47.28,47.28,0,0,0-4,6.2c.57.79,1.13,2,.91,2.51a5.17,5.17,0,0,1-3.2,2.78,20.65,20.65,0,0,0,.12,14.12h0c2.75-1.82,5.69-2.53,6.66,1.35a2,2,0,0,1-.28,1.35,10.22,10.22,0,0,1,3.58,4c1.48-.31,3.08.43,4.93,3.31l-4.44,5.95c.4,1.05,1.18,2.11,1.13,3.14-.12,2.44-1.7,5.36-.8,7.23,3.53,7.27-.35,12.94-3.37,18.9l2.9-1c-1.3,10-1.72,13.24-3.6,13.78a32.2,32.2,0,0,0,2.21,7.27c.17-1.17.33-2.34.5-3.51l17.66,2.52-.48,3.2c.45-.05.91-.09,1.36-.1.1-.74.2-1.47.31-2.2,5.2-.52,8.3.54,9.15,5.09a12.35,12.35,0,0,1,1.64,1.6c-.2-1.63-.41-3.28-.62-5,8.43-1,13.34-5.28,14.6-13.37a23.76,23.76,0,0,1-2-4.51C684.94,437.55,684.67,436.58,684.41,435.61ZM660.88,450.8,644,448.33l4.22-25.57C657.26,431.25,667.08,437.37,660.88,450.8Z" style="fill:#776d6d"/><path d="M614.69,87.77c-2-6.28-6.87-8.68-13.21-8.42-6.84.29-13.67,1.56-20.47,1.39-14.74-.35-29.49-1-44.19-2.17-9.54-.74-19-2-27.92,2.41-4.27,2.12-8.59,4.5-8.31,10.6,9.08,1.07,18,2.13,26.86,3.16a14.72,14.72,0,0,1,10.81,6.17c3.43,4.45,8.19,8,13.87,13a61.22,61.22,0,0,1,18.75,4.7c1.33-.9,2.83-1.84,4.4-3,5.34,1,11.69.85,15.23-6.55.48-1,3-1.12,4.6-1.64,4.56-1.49,9.45-2.41,13.6-4.62A12.86,12.86,0,0,0,614.69,87.77Zm-62.11,21.87c-6.72-.91-10.14-6.14-14.16-12.55l21.24,6.82C556.65,106.46,554.35,109.88,552.58,109.64Zm17.27,2.16c.29-1.33.63-2.84.89-4h16.55C585.57,113.82,575.27,116.26,569.85,111.8Z"/><path d="M553.66,115.23c-1.82,6.21-4.09,15-7,23.63-1.45,4.23-1.63,9-4.92,12.63,4.82,1.53,9.87,1.91,15,2.28a12.78,12.78,0,0,1,.83-3.62c2.08-6.08,3.85-12.24,5.79-18.35,1-3.26,1.58-6.88,3.46-9.61a14.81,14.81,0,0,1,4.13-3.61,61.22,61.22,0,0,0-18.75-4.7C552.64,114.32,553.14,114.76,553.66,115.23Z" style="fill:#5e5e5e"/></svg>