<svg id="a0ec42ef-6d21-46f9-b252-0b4bfb9bc3aa" data-name="Capa 1" xmlns="http://www.w3.org/2000/svg" viewBox="0 0 841.89 595.28"><path d="M739.73,292.27l1.69,24.9c0,.61,3,.09,2.9-.78l-1.69-24.89c0-.62-3-.09-2.9.77Z" style="fill:#e3e3e3"/><path d="M643.18,270.65l-74.51,49.08-20.81,13.71a.92.92,0,0,0-.15,1.52,1.9,1.9,0,0,0,2.08-.16l74.51-49.09L645.11,272a.93.93,0,0,0,.15-1.52,1.88,1.88,0,0,0-2.08.17Z" style="fill:#e3e3e3"/><path d="M147.2,248.63a198.25,198.25,0,0,1-26.68,61.58q-5.19,7.92-11.12,15.34c-.43.53.37.75.76.76a2.56,2.56,0,0,0,1.92-.77,199.65,199.65,0,0,0,32.58-58.92q3.17-9.06,5.42-18.38c.24-1-2.66-.53-2.88.39Z" style="fill:#e3e3e3"/><path d="M397.77,485.34a192.72,192.72,0,0,0,64.51,16.59q9.33.72,18.7.54c.56,0,1.62-.19,1.92-.77s-.25-.77-.77-.76a189.91,189.91,0,0,1-64.73-10.07q-8.82-3-17.3-6.86a2.44,2.44,0,0,0-2.05.29c-.36.22-.9.76-.28,1Z" style="fill:#e3e3e3"/><path d="M747.43,520.53l49.81-29.92,22.79-34,7.5-71.56-16-81.61L760.84,237l-67.67-11h-71s-30.06,7.54-36.69,1.2c-9.52-9.12-.56-52.72-.56-52.72l27.86-36.36s33.12-40.4,25.43-52.9c-17.36-28.24-132.55-2.68-132.55-2.68l2.16,90.34-79.23,9.34L336.39,182,312.6,150.34l-2.25-40.08L250.9,90.1l-58.73-4.94-51,83L88.89,253.68,26.2,331.57l9.38,125v57.74Z" style="fill:#1c3331"/><path d="M728.42,366a171.57,171.57,0,0,1-2.59,62.05,176.56,176.56,0,0,1-23.88,57,168.86,168.86,0,0,1-22,27.31.94.94,0,0,0,.4,1.51,1.89,1.89,0,0,0,2-.55,173.16,173.16,0,0,0,35.26-51.87,178.84,178.84,0,0,0,15-60.92,170.41,170.41,0,0,0-1.4-35.33c-.2-1.42-3.11-.69-2.89.78Z" style="fill:#e3e3e3"/><path d="M699,256.05a310.06,310.06,0,0,1-24.94,75.36A314.36,314.36,0,0,1,631.11,398,305.07,305.07,0,0,1,600,429.86c-1.17,1,1.68.78,2.26.26a311.14,311.14,0,0,0,52.34-60,316.52,316.52,0,0,0,35.57-71.21,308.08,308.08,0,0,0,11.67-43.27c.17-.86-2.72-.38-2.88.45Z" style="fill:#e3e3e3"/><path d="M549.43,116.72q-6.48,30.18-12,60.56-5.55,30.61-10.11,61.39t-8.08,61.39Q515.69,331,513.12,362T509,424.06c-.13,2.57-.26,5.13-.37,7.69,0,.35,2.86,0,2.89-.77q1.44-30.93,3.86-61.8t5.84-61.64q3.4-30.77,7.82-61.41T538.82,185q5.43-30.74,11.86-61.27.8-3.77,1.6-7.53c.12-.55-2.71-.15-2.85.53Z" style="fill:#e3e3e3"/><path d="M437.54,204q-1.55,50.06-2,100.15-.4,49.83.3,99.65.4,28.11,1.16,56.21c0,1.56,3,1.16,2.94-.2q-1.35-50.07-1.56-100.15-.23-49.83.69-99.66.51-28.1,1.38-56.2c0-1.55-2.9-1.17-2.94.2Z" style="fill:#e3e3e3"/><path d="M330.42,198.07c1.67,18.88,3.33,37.77,4.54,56.69s2,38,1.81,57.07a471.74,471.74,0,0,1-3.33,53.8,350.66,350.66,0,0,1-9.88,50.68,273,273,0,0,1-18.22,48.32c-.95,1.91-1.92,3.8-2.91,5.69-.69,1.32,2.22,1.14,2.73.18a269.44,269.44,0,0,0,19.41-47.89,339.84,339.84,0,0,0,10.92-50.68,454.15,454.15,0,0,0,4.1-53.64c.39-18.92-.19-37.85-1.27-56.74-1.1-19.11-2.71-38.18-4.38-57.25q-.31-3.5-.62-7c-.1-1.11-3-.45-2.9.78Z" style="fill:#e3e3e3"/><path d="M198.51,132.76a505.16,505.16,0,0,1,9.25,69.51,517.62,517.62,0,0,1-.34,70.12,522.64,522.64,0,0,1-9.91,70.21,519.81,519.81,0,0,1-19.06,67.48,505.35,505.35,0,0,1-28.08,64.24c-1.35,2.6-2.73,5.17-4.13,7.74-.21.4,2.46.24,2.86-.5a506.07,506.07,0,0,0,29.3-64,519.41,519.41,0,0,0,20.22-67.45A525.79,525.79,0,0,0,209.56,281a520.4,520.4,0,0,0,1.59-70.41,505.67,505.67,0,0,0-8.05-70q-.81-4.32-1.69-8.61c-.13-.62-3,.06-2.9.77Z" style="fill:#e3e3e3"/><path d="M764,325.46c-1.44,0-2.88,0-4.33,0-5.36.18-9.22,3.26-9.09,8,.16,5.66,1,11.29,1.61,16.93,0,.32,0,.75.25.95,4.63,4.14,9.82.27,14.73.2,3.14,0,4-2.07,3.49-4.66a32.54,32.54,0,0,1-.52-10.13c.54.8,1.39,1.54,1.58,2.42q7,32,14,64c.63,2.89-.56,4.4-4,4.85-7.33,1-14.65,2-21.93,3.23-4.51.79-6.07-.65-6.33-4.52-1.42-20.63-3-41.25-4.58-61.87-.28-3.66-.85-7.31-.82-11C748.19,325.92,756,321.48,764,325.46Zm-6.58,82.21,11.7-1.7c14.14-2.07,14.13-2.07,10.4-14.1,0-.16,0-.41-.13-.47-1.46-.87-3-2.53-4.41-2.42a114.61,114.61,0,0,0-15.08,2.18c-1.37.29-3.42,2-3.44,3.06C756.41,398.47,757,402.71,757.43,407.67Z" style="fill:#e3e3e3"/><path d="M74.06,433.12l13-1.89c3.11-.46,6.53-1.79,6.92,2.91s-3.45,4-6.43,4.29c-2.81.31-5.74.09-8.45.73a11.78,11.78,0,0,0-5.32,3c-2.15,2.17-21.42,4.84-23.73,3-4.82-3.91-6.47-15-2.77-19.94a6.46,6.46,0,0,1,3.6-2.21c5.39-1,10.84-1.66,16.27-2.42.73-.1,1.9-.28,2.18,0,4.64,5.46,10.1,1,15.19.51,2.42-.25,4.83-1.3,7.22-1.3,1.84,0,3.65,1.07,5.47,1.66-1,1.91-1.44,4.4-3.08,5.57-1.93,1.38-4.84,1.84-7.4,2.32-4.24.79-8.54,1.29-12.82,1.91Z" style="fill:#e3e3e3"/><path d="M772.08,336c4-.59,6-.9,8.07-1.17,4.55-.59,6.28-3.35,5.68-6.81-.55-3.15-2.77-5.42-7.13-4.62a30.1,30.1,0,0,1-15.71-1c-3.84-1.27-9.3,1-14.93,1.82a23,23,0,0,1,3.9-2.36c6.49-2.28,13.12-4.26,19.56-6.66,5.87-2.2,10.9-1.66,15.52,2.21a15.55,15.55,0,0,1,1.58,22.7c-3,3.25-7.11,5.75-11.3,4.3C775,343.65,774.2,339.66,772.08,336Z" style="fill:#e3e3e3"/><path d="M503.43,368.91c1.6-4.47,4.81-2.9,8.2-1.65l-4.23-7.19,9.78-1.42c-.68,2.92-1.23,5.33-2,8.64,2.93-3.14,5.72-4.79,9.3-2.27l-4.05-6.67,9.08-1.33c-.29,3.4-.56,6.62-.93,11l-6.13-.06,3.74,6.48-9.59,1.4c.58-2.85,1-5.14,1.52-7.49l-6.56,2.94.75,5.16-8.65,1.26c.44-2.16,1.06-3.85,1-5.52,0-1.16-.94-2.28-1.45-3.43Z" style="fill:#e3e3e3"/><path d="M374.74,387.57c1.6-4.47,4.8-2.91,8.2-1.65l-4.24-7.19,9.78-1.43c-.67,2.93-1.23,5.33-2,8.64,2.93-3.13,5.72-4.78,9.3-2.27l-4-6.67,9.08-1.32c-.28,3.39-.56,6.61-.93,11l-6.13-.06,3.74,6.48-9.59,1.4c.58-2.85,1-5.15,1.52-7.5l-6.56,2.94.75,5.17L375,396.36c.44-2.16,1.06-3.86,1-5.52,0-1.17-.93-2.29-1.45-3.43Z" style="fill:#e3e3e3"/><path d="M348.7,391.69c1.6-4.47,4.8-2.9,8.2-1.65-1.4-2.36-2.64-4.46-4.24-7.18l9.78-1.43c-.67,2.92-1.23,5.33-2,8.64,2.93-3.14,5.72-4.79,9.3-2.27l-4.05-6.67,9.08-1.32c-.28,3.39-.56,6.61-.93,11l-6.13-.06,3.74,6.48-9.59,1.39c.58-2.85,1-5.14,1.52-7.49l-6.56,2.94.76,5.17-8.66,1.26c.44-2.16,1.06-3.86,1-5.53,0-1.16-.93-2.28-1.45-3.42Z" style="fill:#e3e3e3"/><path d="M322.66,395.82c1.6-4.47,4.8-2.9,8.2-1.65-1.4-2.36-2.63-4.47-4.24-7.19l9.79-1.42-2,8.64c2.93-3.14,5.72-4.79,9.3-2.27l-4.05-6.67,9.08-1.33c-.28,3.4-.56,6.62-.93,11l-6.13-.05c1,1.74,2.23,3.85,3.74,6.48l-9.59,1.39c.58-2.85,1.05-5.14,1.52-7.49l-6.56,2.94.76,5.16-8.66,1.26c.44-2.16,1.06-3.85,1-5.52,0-1.16-.93-2.28-1.45-3.42Z" style="fill:#e3e3e3"/><path d="M296.62,400c1.6-4.47,4.8-2.91,8.2-1.65-1.39-2.36-2.63-4.47-4.24-7.19l9.79-1.42-2,8.64c2.93-3.14,5.72-4.79,9.3-2.28l-4.05-6.67,9.08-1.32c-.28,3.4-.56,6.62-.93,11l-6.13-.06,3.74,6.48-9.59,1.4c.58-2.85,1.05-5.14,1.52-7.49l-6.56,2.93.76,5.17-8.66,1.26c.44-2.16,1.06-3.86,1-5.52,0-1.16-.93-2.29-1.45-3.43Z" style="fill:#e3e3e3"/><path d="M270.58,404.08c1.6-4.47,4.8-2.91,8.2-1.65-1.39-2.37-2.63-4.47-4.24-7.19l9.79-1.43-2,8.64c2.93-3.13,5.72-4.78,9.3-2.27l-4.05-6.67,9.08-1.32c-.28,3.39-.56,6.61-.93,11l-6.13-.06,3.74,6.48-9.59,1.4c.58-2.85,1.05-5.15,1.52-7.5l-6.56,2.94.76,5.17-8.66,1.26c.44-2.16,1.06-3.86,1-5.52,0-1.17-.93-2.29-1.45-3.43Z" style="fill:#e3e3e3"/><path d="M244.54,408.2c1.6-4.47,4.8-2.9,8.2-1.65l-4.24-7.18,9.79-1.43-2,8.64c2.93-3.14,5.72-4.79,9.3-2.27l-4.05-6.67,9.09-1.32c-.29,3.39-.57,6.61-.94,11l-6.12-.06,3.73,6.48-9.59,1.39c.58-2.85,1.05-5.14,1.52-7.49l-6.56,2.94.76,5.17L244.76,417c.44-2.16,1.06-3.86,1-5.53,0-1.16-.93-2.28-1.45-3.42Z" style="fill:#e3e3e3"/><path d="M218.5,412.33c1.6-4.47,4.8-2.9,8.2-1.65-1.39-2.36-2.63-4.47-4.24-7.19l9.79-1.42-2,8.64c2.93-3.14,5.72-4.79,9.3-2.27l-4-6.67,9.09-1.32c-.29,3.39-.57,6.61-.94,11l-6.12-.05,3.73,6.48-9.59,1.39c.58-2.85,1.05-5.14,1.53-7.49l-6.57,2.94.76,5.16-8.66,1.26c.44-2.16,1.06-3.85,1-5.52,0-1.16-.93-2.28-1.45-3.42Z" style="fill:#e3e3e3"/><path d="M192.46,416.46c1.6-4.47,4.8-2.91,8.2-1.65-1.39-2.36-2.63-4.47-4.24-7.19l9.79-1.42-2,8.64c2.93-3.14,5.72-4.79,9.3-2.28l-4.05-6.67,9.09-1.32c-.29,3.4-.57,6.62-.94,11l-6.12-.06c1,1.75,2.22,3.86,3.73,6.48l-9.59,1.4c.58-2.85,1-5.14,1.53-7.49l-6.56,2.93.75,5.17-8.66,1.26c.44-2.16,1.06-3.86,1-5.52,0-1.16-.93-2.29-1.45-3.43Z" style="fill:#e3e3e3"/><path d="M166.42,420.59c1.6-4.47,4.8-2.91,8.2-1.65-1.39-2.37-2.63-4.47-4.24-7.19l9.79-1.43-2,8.64c2.93-3.13,5.72-4.78,9.3-2.27L183.41,410l9.09-1.32c-.29,3.39-.57,6.61-.94,11l-6.12-.06c1,1.75,2.22,3.86,3.73,6.48l-9.59,1.4,1.53-7.5L174.55,423l.75,5.17-8.66,1.26c.44-2.16,1.06-3.86,1-5.52,0-1.17-.93-2.29-1.45-3.43Z" style="fill:#e3e3e3"/><path d="M140.38,424.71c1.6-4.47,4.8-2.9,8.2-1.65l-4.24-7.18,9.79-1.43-2,8.64c2.93-3.14,5.72-4.79,9.3-2.27l-4-6.67,9.09-1.32c-.29,3.39-.57,6.61-.94,11l-6.12-.06,3.73,6.48-9.59,1.39c.58-2.85,1.05-5.14,1.53-7.49l-6.56,2.94.75,5.17-8.66,1.26c.44-2.16,1.06-3.86,1-5.53,0-1.16-.93-2.28-1.45-3.42Z" style="fill:#e3e3e3"/><path d="M114.34,428.84c1.6-4.47,4.8-2.9,8.2-1.65L118.3,420l9.79-1.42-2,8.64c2.93-3.14,5.72-4.79,9.31-2.27l-4.06-6.67,9.09-1.32c-.29,3.39-.56,6.61-.94,11l-6.12-.05,3.73,6.48-9.59,1.39c.58-2.85,1.05-5.14,1.53-7.49l-6.56,2.94.75,5.16-8.66,1.26c.44-2.16,1.06-3.85,1-5.52,0-1.16-.93-2.28-1.45-3.42Z" style="fill:#e3e3e3"/><path d="M88.3,433c1.6-4.47,4.8-2.91,8.2-1.65-1.39-2.36-2.63-4.47-4.24-7.19l9.79-1.42-2,8.64c2.93-3.14,5.72-4.79,9.31-2.27-1.22-2-2.44-4-4.06-6.67l9.09-1.33c-.29,3.4-.56,6.62-.94,11l-6.12-.06c1,1.75,2.22,3.86,3.73,6.48l-9.59,1.4c.58-2.85,1.05-5.14,1.53-7.49l-6.56,2.93.75,5.17-8.66,1.26c.44-2.16,1.06-3.86,1-5.52,0-1.16-.93-2.29-1.45-3.43Z" style="fill:#e3e3e3"/><path d="M619.77,350.88c.61,4.5-.75,5.23-6.49,3.4l3.52,7-9.24,1.34c.53-2.87,1-5.23,1.3-7l-8.25,1.66c.69,1.13,2,3.21,3.56,5.82l-9.57,1.39c.34-2.71.64-5.08.93-7.45a5.07,5.07,0,0,0-.39-.67c0-5.82,3.77-3.08,7-2.5-1.16-2.22-2.26-4.35-3.63-7l9.44-1.37-2.07,8.92c3-3.69,5.85-5,9.49-2.53L611.11,345l9.85-1.44c-.74,2.62-1.37,4.8-2,7a.44.44,0,0,0,.23.39,1.6,1.6,0,0,0,.55,0Z" style="fill:#e3e3e3"/><path d="M490.47,369.91l-3.64,5.65-1.34-.6,1.1,5.16-9,1.31c.67-2.73,1.25-5.11,1.72-7l-8.27,1.7c.62,1.09,1.77,3.08,3.28,5.7l-9.4,1.37a42.12,42.12,0,0,0,1.06-5.56,11.14,11.14,0,0,0-.81-3.3l.15.12c1.08-5.37,4.43-2,7.27-1.76l-4-6.9,9.57-1.4-1.45,7,8.21-1.64c-.6-1.05-1.81-3.13-3.38-5.85l9.77-1.42c-.81,2.91-1.46,5.26-2.08,7.61,0,.06.27.28.37.26.33-.08.63-.23,1-.33C490.55,370.05,490.47,369.91,490.47,369.91Z" style="fill:#e3e3e3"/><path d="M554.24,360.43c.14,1.19.27,2.38.41,3.57l-6.16.25c1,1.73,2.18,3.83,3.63,6.4l-9.65,1.4c.64-3,1.16-5.38,1.52-7.09l-8.13,1.74c.57,1,1.7,3.06,3.18,5.7l-9.13,1.33c.39-3.62.76-6.93,1.22-11.15l6,.23-3.67-6.45,9.69-1.41c-.71,2.86-1.31,5.22-2.06,8.22,1.67-1.11,2.88-2.46,4.27-2.67,1.57-.24,3.3.56,5,.9l-3.86-6.93,9.65-1.84-1.82,7.81Z" style="fill:#e3e3e3"/><path d="M768.78,334.9c-2.61.38-5.25.62-7.81,1.17-3.74.81-5.38-.18-6-3.66-.62-3.7,1.56-4.22,4.7-4.63q9-1.17,17.88-2.61c3.33-.53,5.71.28,6.22,3.32s-1.73,4.5-5,4.93-6.71,1-10.06,1.46Z" style="fill:#e3e3e3"/><path d="M705,339.1c.21-.64.82-1.48.57-1.89-1-1.62-2.22-3.1-4-5.41l10.14-1.89c-.74,3.26-1.29,5.75-1.7,7.55l8.49-1.6-3.56-6,9.55-1.39-1.41,7.32v0c1.25,4.45.18,5.09-6.25,3.75,1.2,2,2.42,4,4,6.51l-9.59,1.4c.55-2.84,1-5.24,1.46-7.58-2.79.84-6.43,5.81-7.64-1Z" style="fill:#e3e3e3"/><path d="M678.06,344.39c1.36-1.29,3.52-2.29.69-4.24-1.21-.84-1.46-2.75-2.36-4.63l9.71-1.41c-.9,3-1.58,5.26-2.1,7l8.75-1.27-3.64-6.18,9.45-1.38c-.49,2.78-.88,5.06-1.28,7.33v0c.91,4.5-.25,5.16-6.22,3.46l3.69,6.87-9.5,1.38,1.39-6.76-7.89.81Z" style="fill:#e3e3e3"/><path d="M595.14,356.33a5.07,5.07,0,0,1,.39.67l-7.86,2.17L591,365l-9.52,1.39c.63-2.81,1.16-5.2,1.59-7.13l-6.21,1.48c-.31-1.16-.62-2.32-.92-3.49l0,.05c-1-2.1-2.07-4.2-3.29-6.67l9.48-1.38-1.83,7.17,8.5-1.67-3.64-6,9.77-1.81c-.53,2.51-1.17,4.29-1.18,6.05C593.72,354.11,594.64,355.21,595.14,356.33Z" style="fill:#e3e3e3"/><path d="M646.79,348.66c.27-5.49,4-3.07,7.35-2.44l-3.93-6.79L660,338a43,43,0,0,0-1.74,5.7c-.1.61.87,1.33,1.37,2l-.11-.13-3.9,5.22-1.37-.57.79,5.42-8.51,1.24c.24-2.57.44-4.78.65-7C647.06,349.48,646.93,349.07,646.79,348.66Z" style="fill:#e3e3e3"/><path d="M452.2,377.12c.17-5.89,4.07-3.24,7.21-2.46-1.21-2.3-2.35-4.45-3.74-7.1l9.7-1.41a38.39,38.39,0,0,0-1.57,5.9c-.08.77,1,1.6,1.51,2.4l-.15-.12c-.67,5.24-4.38,3.46-7.63,2.76l3.72,6.77L452,385.21c.22-2.65.41-4.86.59-7.07Z" style="fill:#e3e3e3"/><path d="M619.77,351l7.81-2c-.66-1.17-1.8-3.21-3.26-5.83l9.16-1.33c-.39,3.48-.75,6.68-1.22,10.84l-4,1.48c.33,1.56.67,3.13,1.09,5.16l-7.92,1.15c-3.38-2.87,4-7.17-1.67-9.55Z" style="fill:#e3e3e3"/><path d="M503.24,368.75c.28,6.52-4.34,2.4-7,2.63l4.07,6.67-8.4,1.22c-3.65-2.85,3.52-6.83-1.44-9.34,0,0,.07.12,0,.1,2.44-.78,4.91-1.53,7.33-2.28l-3.33-5.81,9.31-1.35c-.38,2.12-.82,3.88-1,5.65a9.19,9.19,0,0,0,.57,2.67Z" style="fill:#e3e3e3"/><path d="M646.79,348.66c.14.41.27.82.41,1.23l-7.52,1.77,3.1,5.65-9,1.31c.32-3.52.61-6.82,1-11.17l6.32.44-4-6.6,9.35-1.36a34.67,34.67,0,0,0-.7,5.23A13.51,13.51,0,0,0,646.79,348.66Z" style="fill:#e3e3e3"/><path d="M554.25,360.44l8.61-2-3.74-5.82,10.3-1.92c-1.08,3.27-1.8,5.45-2.5,7.63,0,.12.15.4.24.4a7.28,7.28,0,0,0,.89-.12s0-.1,0-.1c.28,4.38-.94,5.05-6.59,3.65,1.07,2,2.17,4,3.54,6.58l-9.56,1.39c.66-2.82,1.19-5.08,2-8.39l-3.15-1.33Z" style="fill:#e3e3e3"/><path d="M426.71,381.77l-7.65,2,3.2,5.78-9.08,1.32c.39-3.58.73-6.73,1.2-11.11h6.08l-3.84-6.39,8.14-1.19c4,2.73-3.45,6.69,1.69,8.92A.9.9,0,0,1,426.71,381.77Z" style="fill:#e3e3e3"/><path d="M452.2,377.12l.36,1-7.69,1.67,3.49,5.92-9.62,1.4c.61-2.7,1.09-4.85,1.57-7v0c-.05-1.33-.11-2.67-.16-4l6.28-.06-3.84-6.45,8.33-1.22Z" style="fill:#e3e3e3"/><path d="M671.34,343.44c0,1.18.19,3.33-.08,3.39a41.12,41.12,0,0,1-5.93.49l3.55,6.24-8.55,1.24c-.26-3.08-.52-6.14-.78-9.21l.1.12c2.37-.88,4.74-1.76,7-2.57-.64-1-1.93-3-3.61-5.63l9.54-1.39c-.45,2.73-.83,5-1.2,7.38C671.37,343.52,671.34,343.44,671.34,343.44Z" style="fill:#e3e3e3"/><path d="M752.76,334.59c1.24,4.52,5.12,3.77,8.66,3,5.12-1.15,6.44.8,5.75,5.34l-13,1.08Z" style="fill:#e3e3e3"/><path d="M426.71,381.77a.9.9,0,0,0-.26-.71l2.9-3.74,2.46,2.61c.17.42.33.85.48,1.27l2.87,6.41L426,389.36C426.29,386.43,426.5,384.1,426.71,381.77Z" style="fill:#e3e3e3"/><path d="M737.41,334.65c2.87-3.93,4.44-3.8,9.08,1.23l-3.89-.58,4.07,7-8.56,1.25c-.31-3.23-.58-6.15-.86-9.07Z" style="fill:#e3e3e3"/><path d="M406.39,384.92l2.8,6.38-9.12,1.33c.47-3.51.88-6.63,1.43-10.79,1.54-.87,4.1-2.65,4.86,2Z" style="fill:#e3e3e3"/><path d="M432.29,381.2c-.15-.42-.31-.85-.48-1.27.24-1.18.9-2.48.61-3.55-.4-1.48-1.52-2.79-2.69-4.79l8.55-1.25c3,3-4.39,7.66,2,9.79v0Z" style="fill:#e3e3e3"/><path d="M678.06,344.39l.69.95,2.93,6.31-8.37,1.21c-3.5-2.76,4.41-7.25-1.95-9.4,0,0,0,.06,0,0C676.38,340.45,677.51,340.61,678.06,344.39Z" style="fill:#e3e3e3"/><path d="M697.28,339.62c2.54-1,5-4.12,7.74-.5a1.8,1.8,0,0,1,.08-.21c0,1.37-.37,2.83,0,4.11a29.89,29.89,0,0,0,2.52,5l-8.24,1.2c-3.64-2.76,4.36-7.54-2.09-9.61Z" style="fill:#e3e3e3"/><path d="M723.15,335.81c2.58-.69,5.19-4.32,7.73-.19l.12-.18c0,1.25-.36,2.59,0,3.75a35.08,35.08,0,0,0,2.55,5l-8.18,1.19c-3.59-2.78,4.21-7.6-2.22-9.61C723.14,335.79,723.15,335.81,723.15,335.81Z" style="fill:#e3e3e3"/><path d="M406.39,384.92l0-1.06c.06-1.26.45-2.61.11-3.76a30.6,30.6,0,0,0-2.49-5l8.91-1.3-1.06,11.28Z" style="fill:#e3e3e3"/><path d="M575.89,357.21c-1,1.8-3.26,3.46,0,5.37,1.1.65,1.2,2.58,1.93,4.32l-7.91,1.15c-4.1-2.72,4-7.24-1.85-9.5,0,0,0,.1,0,.08l7.87-1.36Z" style="fill:#e3e3e3"/><path d="M737.25,334.51l-3,3.79L731,335.44l-.12.18c.11-.85.58-1.83.25-2.49a46.38,46.38,0,0,0-3.29-5l10.21-1.49a49.35,49.35,0,0,0-2,6c-.12.6.88,1.33,1.37,2Z" style="fill:#e3e3e3"/><path d="M740.58,325.59c2.84.06,5.22-.2,5.32.16a30.09,30.09,0,0,1,.74,5.81l-1.85.57Z" style="fill:#e3e3e3"/></svg>